<?xml version="1.0" encoding="utf-8"?>
<!-- Generator: Adobe Illustrator 23.0.1, SVG Export Plug-In . SVG Version: 6.00 Build 0)  -->
<svg version="1.1" id="Layer_1" xmlns="http://www.w3.org/2000/svg" xmlns:xlink="http://www.w3.org/1999/xlink" x="0px" y="0px"
	 viewBox="0 0 1247 1020" style="enable-background:new 0 0 1247 1020;" xml:space="preserve">
<style type="text/css">
	.st0{fill:none;stroke:#000000;stroke-width:2;stroke-miterlimit:10;}
	.st1{fill:#FFFFFF;stroke:#FFFFFF;stroke-miterlimit:10;}
	.st2{stroke:#000000;stroke-width:2;stroke-miterlimit:10;}
	.st3{fill:#FFFFFF;}
	.st4{font-family:'RobotoMono-Medium';}
	.st5{font-size:12.53px;}
	.st6{font-family:'SportingGrotesque-Bold';}
	.st7{font-size:25.08px;}
	.st8{font-family:'RobotoMono-Bold';}
	.st9{font-size:11.27px;}
	.st10{fill:#F23F00;stroke:#000000;stroke-width:2;stroke-miterlimit:10;}
	.st11{fill:#E3A7B7;stroke:#000000;stroke-width:2;stroke-miterlimit:10;}
	.st12{fill:#D69E4A;stroke:#000000;stroke-width:2;stroke-miterlimit:10;}
	.st13{fill:#ECD98F;stroke:#000000;stroke-width:2;stroke-miterlimit:10;}
	.st14{fill:#F8CC19;stroke:#000000;stroke-width:2;stroke-miterlimit:10;}
	.st15{fill:#700B17;stroke:#000000;stroke-width:2;stroke-miterlimit:10;}
	.st16{fill:#C414B9;stroke:#000000;stroke-width:2;stroke-miterlimit:10;}
	.st17{fill:#E95610;stroke:#000000;stroke-width:2;stroke-miterlimit:10;}
	.st18{fill:#AACD27;stroke:#000000;stroke-width:2;stroke-miterlimit:10;}
	.st19{fill:#EAD5A7;stroke:#000000;stroke-width:2;stroke-miterlimit:10;}
	.st20{fill:#FFFFFF;stroke:#000000;stroke-width:2;stroke-miterlimit:10;}
	.st21{font-family:'YoungSerif-Regular';}
	.st22{font-size:9.2px;}
	.st23{fill:none;stroke:#000000;stroke-width:0.25;stroke-miterlimit:10;}
	.st24{font-size:6.69px;}
	.st25{fill:#35611D;}
	.st26{fill:none;stroke:#000000;stroke-width:2;stroke-miterlimit:10;stroke-dasharray:6.23,6.23;}
	.st27{fill:none;stroke:#000000;stroke-width:2;stroke-miterlimit:10;stroke-dasharray:5.03,5.03;}
	.st28{fill:none;stroke:#FFFFFF;stroke-width:0.25;stroke-miterlimit:10;}
	.st29{fill:none;stroke:#000000;stroke-width:2;stroke-miterlimit:10;stroke-dasharray:6.43,6.43;}
	.st30{fill:#F1282D;}
	.st31{fill:none;stroke:#000000;stroke-width:2;stroke-miterlimit:10;stroke-dasharray:6.18,6.18;}
	.st32{fill:#333333;}
	.st33{fill:none;stroke:#000000;stroke-width:2;stroke-miterlimit:10;stroke-dasharray:6.39,6.39;}
	.st34{fill:none;stroke:#000000;stroke-width:2.5;stroke-miterlimit:10;}
	.st35{clip-path:url(#SVGID_2_);}
	.st36{clip-path:url(#SVGID_4_);}
	.st37{stroke:#000000;stroke-width:0.75;stroke-miterlimit:10;}
	.st38{font-size:10px;}
	.st39{letter-spacing:1;}
	.st40{font-size:8px;}
	.st41{font-size:6px;}
	.st42{fill:none;stroke:#000000;stroke-width:2;stroke-miterlimit:10;stroke-dasharray:5;}
</style>
<symbol  id="solid" viewBox="-14.5 -14.5 29 29">
	<g id="solid-3_2_">
		<polygon class="st0" points="13.5,-13.5 13.5,13.5 -13.5,13.5 -13.5,-13.5 		"/>
		<polygon class="st0" points="9.9,-9.9 9.9,9.9 -9.9,9.9 -9.9,-9.9 		"/>
		<polygon class="st0" points="6.3,-6.3 6.3,6.3 -6.3,6.3 -6.3,-6.3 		"/>
		<polygon class="st0" points="2.7,-2.7 2.7,2.7 -2.7,2.7 -2.7,-2.7 		"/>
	</g>
</symbol>
<title>dish</title>
<g id="fusilli_key">
	<rect x="584.4" y="-0.9" class="st1" width="662.2" height="1021.4"/>
	<rect x="582.3" y="1" class="st2" width="42.1" height="163.4"/>
	<text transform="matrix(6.123234e-17 -1 1 6.123234e-17 606.9697 151.6602)" class="st3 st4 st5">CHEF MICHAEL WHITE</text>
	<text transform="matrix(1 0 0 1 744.1899 122.1201)" class="st6 st7">Fusilli, Red Wine-braised</text>
	<text transform="matrix(1 0 0 1 693.3401 158.4099)" class="st6 st7">Octopus, and Bone Marrow</text>
	<text transform="matrix(1 4.537840e-03 -4.537840e-03 1 1130.9202 50.1499)" class="st8 st9">FEEDS 4</text>
	<line class="st0" x1="1194.7" y1="47.1" x2="1240.7" y2="47.1"/>
	<rect x="663.4" y="192" class="st10" width="257.4" height="333.7"/>
	<rect x="920.7" y="191.9" class="st11" width="236.4" height="333.7"/>
	<rect x="663.6" y="525.3" class="st12" width="245.1" height="216.2"/>
	<rect x="908.7" y="525.3" class="st13" width="128.5" height="207.5"/>
	<rect x="1037.3" y="525.3" class="st14" width="119.7" height="207.5"/>
	<rect x="663.6" y="741.5" class="st15" width="245.1" height="112.6"/>
	<rect x="908.9" y="732.8" class="st16" width="122" height="121.2"/>
	<rect x="1031.2" y="733.2" class="st17" width="95.2" height="61.1"/>
	<rect x="1031.2" y="793" class="st18" width="95.2" height="61.1"/>
	<rect x="1126.7" y="733.2" class="st19" width="30.3" height="120.9"/>
	
		<rect x="706.1" y="448.6" transform="matrix(3.665158e-03 -1 1 3.665158e-03 220.9821 1221.6672)" class="st20" width="34.9" height="102.7"/>
	<text transform="matrix(1 0 0 1 678.6599 506.8)" class="st21 st22">T</text>
	<text transform="matrix(1 0 0 1 678.6599 506.8)" class="st23 st21 st22">T</text>
	<text transform="matrix(1 0 0 1 686.3999 506.8)" class="st21 st22">O</text>
	<text transform="matrix(1 0 0 1 686.3999 506.8)" class="st23 st21 st22">O</text>
	<text transform="matrix(1 0 0 1 694.3198 506.8)" class="st21 st22">M</text>
	<text transform="matrix(1 0 0 1 694.3198 506.8)" class="st23 st21 st22">M</text>
	<text transform="matrix(1 0 0 1 704.53 506.8)" class="st21 st22">A</text>
	<text transform="matrix(1 0 0 1 704.53 506.8)" class="st23 st21 st22">A</text>
	<text transform="matrix(1 0 0 1 711.71 506.8)" class="st21 st22">T</text>
	<text transform="matrix(1 0 0 1 711.71 506.8)" class="st23 st21 st22">T</text>
	<text transform="matrix(1 0 0 1 719.45 506.8)" class="st21 st22">O </text>
	<text transform="matrix(1 0 0 1 719.45 506.8)" class="st23 st21 st22">O </text>
	<text transform="matrix(1 0 0 1 730.6699 506.8)" class="st21 st22">P</text>
	<text transform="matrix(1 0 0 1 730.6699 506.8)" class="st23 st21 st22">P</text>
	<text transform="matrix(1 0 0 1 737.6099 506.8)" class="st21 st22">U</text>
	<text transform="matrix(1 0 0 1 737.6099 506.8)" class="st23 st21 st22">U</text>
	<text transform="matrix(1 0 0 1 745.72 506.8)" class="st21 st22">R</text>
	<text transform="matrix(1 0 0 1 745.72 506.8)" class="st23 st21 st22">R</text>
	<text transform="matrix(1 0 0 1 753.6499 506.8)" class="st21 st22">E</text>
	<text transform="matrix(1 0 0 1 753.6499 506.8)" class="st23 st21 st22">E</text>
	<text transform="matrix(1 0 0 1 760.95 506.8)" class="st21 st22">E</text>
	<text transform="matrix(1 0 0 1 760.95 506.8)" class="st23 st21 st22">E</text>
	<text transform="matrix(0.9999 -1.000000e-02 1.000000e-02 0.9999 678.6896 496.4394)" class="st4 st24">26oz</text>
	
		<rect x="961.5" y="449.9" transform="matrix(3.665158e-03 -1 1 3.665158e-03 476.2252 1476.2991)" class="st20" width="34.9" height="98.6"/>
	<text transform="matrix(1 0 0 1 936.1899 505.96)" class="st21 st22">B</text>
	<text transform="matrix(1 0 0 1 936.1899 505.96)" class="st23 st21 st22">B</text>
	<text transform="matrix(1 0 0 1 943.1299 505.96)" class="st21 st22">A</text>
	<text transform="matrix(1 0 0 1 943.1299 505.96)" class="st23 st21 st22">A</text>
	<text transform="matrix(1 0 0 1 951.04 505.96)" class="st21 st22">B</text>
	<text transform="matrix(1 0 0 1 951.04 505.96)" class="st23 st21 st22">B</text>
	<text transform="matrix(1 0 0 1 957.71 505.96)" class="st21 st22">Y </text>
	<text transform="matrix(1 0 0 1 957.71 505.96)" class="st23 st21 st22">Y </text>
	<text transform="matrix(1 0 0 1 968.6799 505.96)" class="st21 st22">O</text>
	<text transform="matrix(1 0 0 1 968.6799 505.96)" class="st23 st21 st22">O</text>
	<text transform="matrix(1 0 0 1 976.8201 505.96)" class="st21 st22">C</text>
	<text transform="matrix(1 0 0 1 976.8201 505.96)" class="st23 st21 st22">C</text>
	<text transform="matrix(1 0 0 1 984.3901 505.96)" class="st21 st22">T</text>
	<text transform="matrix(1 0 0 1 984.3901 505.96)" class="st23 st21 st22">T</text>
	<text transform="matrix(1 0 0 1 992.1299 505.96)" class="st21 st22">O</text>
	<text transform="matrix(1 0 0 1 992.1299 505.96)" class="st23 st21 st22">O</text>
	<text transform="matrix(1 0 0 1 1000.05 505.96)" class="st21 st22">P</text>
	<text transform="matrix(1 0 0 1 1000.05 505.96)" class="st23 st21 st22">P</text>
	<text transform="matrix(1 0 0 1 1006.98 505.96)" class="st21 st22">U</text>
	<text transform="matrix(1 0 0 1 1006.98 505.96)" class="st23 st21 st22">U</text>
	<text transform="matrix(1 0 0 1 1014.54 505.96)" class="st21 st22">S</text>
	<text transform="matrix(1 0 0 1 1014.54 505.96)" class="st23 st21 st22">S</text>
	<text transform="matrix(0.9999 -1.000000e-02 1.000000e-02 0.9999 936.2194 495.5994)" class="st4 st24">1 1/2 lb</text>
	
		<rect x="696.5" y="673.9" transform="matrix(3.665158e-03 -1 1 3.665158e-03 -4.2663 1426.9275)" class="st20" width="34.9" height="83.5"/>
	<text transform="matrix(1 0 0 1 678.6599 722.52)" class="st21 st22">D</text>
	<text transform="matrix(1 0 0 1 678.6599 722.52)" class="st23 st21 st22">D</text>
	<text transform="matrix(1 0 0 1 686.28 722.52)" class="st21 st22">R</text>
	<text transform="matrix(1 0 0 1 686.28 722.52)" class="st23 st21 st22">R</text>
	<text transform="matrix(1 0 0 1 693.2 722.52)" class="st21 st22">Y </text>
	<text transform="matrix(1 0 0 1 693.2 722.52)" class="st23 st21 st22">Y </text>
	<text transform="matrix(1 0 0 1 704.1599 722.52)" class="st21 st22">F</text>
	<text transform="matrix(1 0 0 1 704.1599 722.52)" class="st23 st21 st22">F</text>
	<text transform="matrix(1 0 0 1 711.1399 722.52)" class="st21 st22">U</text>
	<text transform="matrix(1 0 0 1 711.1399 722.52)" class="st23 st21 st22">U</text>
	<text transform="matrix(1 0 0 1 718.7 722.52)" class="st21 st22">S</text>
	<text transform="matrix(1 0 0 1 718.7 722.52)" class="st23 st21 st22">S</text>
	<text transform="matrix(1 0 0 1 725.8899 722.52)" class="st21 st22">I</text>
	<text transform="matrix(1 0 0 1 725.8899 722.52)" class="st23 st21 st22">I</text>
	<text transform="matrix(1 0 0 1 730.22 722.52)" class="st21 st22">L</text>
	<text transform="matrix(1 0 0 1 730.22 722.52)" class="st23 st21 st22">L</text>
	<text transform="matrix(1 0 0 1 737.1001 722.52)" class="st21 st22">L</text>
	<text transform="matrix(1 0 0 1 737.1001 722.52)" class="st23 st21 st22">L</text>
	<text transform="matrix(1 0 0 1 744.03 722.52)" class="st21 st22">I</text>
	<text transform="matrix(1 0 0 1 744.03 722.52)" class="st23 st21 st22">I</text>
	<text transform="matrix(0.9999 -1.000000e-02 1.000000e-02 0.9999 678.6895 712.1591)" class="st4 st24">1lb</text>
	
		<rect x="703.2" y="780.1" transform="matrix(3.665158e-03 -1 1 3.665158e-03 -110.617 1546.156)" class="st20" width="34.9" height="96.9"/>
	<text transform="matrix(1 0 0 1 678.6599 835.3999)" class="st21 st22">D</text>
	<text transform="matrix(1 0 0 1 678.6599 835.3999)" class="st23 st21 st22">D</text>
	<text transform="matrix(1 0 0 1 686.29 835.3999)" class="st21 st22">R</text>
	<text transform="matrix(1 0 0 1 686.29 835.3999)" class="st23 st21 st22">R</text>
	<text transform="matrix(1 0 0 1 693.2 835.3999)" class="st21 st22">Y </text>
	<text transform="matrix(1 0 0 1 693.2 835.3999)" class="st23 st21 st22">Y </text>
	<text transform="matrix(1 0 0 1 704.1599 835.3999)" class="st21 st22">R</text>
	<text transform="matrix(1 0 0 1 704.1599 835.3999)" class="st23 st21 st22">R</text>
	<text transform="matrix(1 0 0 1 712.0898 835.3999)" class="st21 st22">E</text>
	<text transform="matrix(1 0 0 1 712.0898 835.3999)" class="st23 st21 st22">E</text>
	<text transform="matrix(1 0 0 1 719.3999 835.3999)" class="st21 st22">D W</text>
	<text transform="matrix(1 0 0 1 719.3999 835.3999)" class="st23 st21 st22">D W</text>
	<text transform="matrix(1 0 0 1 742.1001 835.3999)" class="st21 st22">I</text>
	<text transform="matrix(1 0 0 1 742.1001 835.3999)" class="st23 st21 st22">I</text>
	<text transform="matrix(1 0 0 1 746.4399 835.3999)" class="st21 st22">N</text>
	<text transform="matrix(1 0 0 1 746.4399 835.3999)" class="st23 st21 st22">N</text>
	<text transform="matrix(1 0 0 1 755.27 835.3999)" class="st21 st22">E</text>
	<text transform="matrix(1 0 0 1 755.27 835.3999)" class="st23 st21 st22">E</text>
	<text transform="matrix(0.9999 -1.000000e-02 1.000000e-02 0.9999 678.6894 825.0388)" class="st4 st24">1 cup</text>
	<rect x="917.3" y="689.3" class="st20" width="81.7" height="34.9"/>
	<text transform="matrix(1.01 0 0 1 923.3999 710.27)" class="st21 st22">B</text>
	<text transform="matrix(1.01 0 0 1 923.3999 710.27)" class="st23 st21 st22">B</text>
	<text transform="matrix(1.01 0 0 1 930.6924 710.27)" class="st21 st22">O</text>
	<text transform="matrix(1.01 0 0 1 930.6924 710.27)" class="st23 st21 st22">O</text>
	<text transform="matrix(1.01 0 0 1 938.6914 710.27)" class="st21 st22">N</text>
	<text transform="matrix(1.01 0 0 1 938.6914 710.27)" class="st23 st21 st22">N</text>
	<text transform="matrix(1.01 0 0 1 947.6094 710.27)" class="st21 st22">E</text>
	<text transform="matrix(1.01 0 0 1 947.6094 710.27)" class="st23 st21 st22">E</text>
	<text transform="matrix(1.01 0 0 1 923.3999 719.6602)" class="st21 st22">MA</text>
	<text transform="matrix(1.01 0 0 1 923.3999 719.6602)" class="st23 st21 st22">MA</text>
	<text transform="matrix(1.01 0 0 1 941.7012 719.6602)" class="st21 st22">R</text>
	<text transform="matrix(1.01 0 0 1 941.7012 719.6602)" class="st23 st21 st22">R</text>
	<text transform="matrix(1.01 0 0 1 949.7104 719.6602)" class="st21 st22">R</text>
	<text transform="matrix(1.01 0 0 1 949.7104 719.6602)" class="st23 st21 st22">R</text>
	<text transform="matrix(1.01 0 0 1 957.1338 719.6602)" class="st21 st22">O</text>
	<text transform="matrix(1.01 0 0 1 957.1338 719.6602)" class="st23 st21 st22">O</text>
	<text transform="matrix(1.01 0 0 1 964.9009 719.6602)" class="st21 st22">W</text>
	<text transform="matrix(1.01 0 0 1 964.9009 719.6602)" class="st23 st21 st22">W</text>
	<text transform="matrix(1.01 1.000000e-02 -1.000000e-02 0.9999 923.49 699.0486)" class="st4 st24">1/2 lb</text>
	<g id="chop">
		<g id="solid-slice">
			
				<rect x="982.8" y="689.5" transform="matrix(8.028153e-03 -1 1 8.028153e-03 285.2961 1701.1549)" class="st20" width="34.6" height="34.6"/>
		</g>
		
			<rect x="987.5" y="693.9" transform="matrix(8.028153e-03 -1 1 8.028153e-03 285.6187 1676.9917)" class="st0" width="1.2" height="1.2"/>
		
			<rect x="995.6" y="694" transform="matrix(8.028153e-03 -1 1 8.028153e-03 293.6118 1685.1805)" class="st0" width="1.2" height="1.2"/>
		
			<rect x="1005.5" y="695.4" transform="matrix(1.000000e-02 -0.9999 0.9999 1.000000e-02 300.0463 1695.1571)" class="st0" width="1.2" height="1.2"/>
		
			<rect x="1011.7" y="694.1" transform="matrix(8.028153e-03 -1 1 8.028153e-03 309.5402 1701.4185)" class="st0" width="1.2" height="1.2"/>
		
			<rect x="987.2" y="718.2" transform="matrix(8.028153e-03 -1 1 8.028153e-03 261.1331 1700.8126)" class="st0" width="1.2" height="1.2"/>
		
			<rect x="995.4" y="718.3" transform="matrix(8.028153e-03 -1 1 8.028153e-03 269.1262 1709.0017)" class="st0" width="1.2" height="1.2"/>
		
			<rect x="1003.5" y="718.3" transform="matrix(8.028153e-03 -1 1 8.028153e-03 277.12 1717.151)" class="st0" width="1.2" height="1.2"/>
		
			<rect x="1011.5" y="718.3" transform="matrix(8.028153e-03 -1 1 8.028153e-03 285.0546 1725.2396)" class="st0" width="1.2" height="1.2"/>
		
			<rect x="987.4" y="702" transform="matrix(8.028153e-03 -1 1 8.028153e-03 277.5698 1684.9268)" class="st0" width="1.2" height="1.2"/>
		
			<rect x="995.4" y="702" transform="matrix(8.028153e-03 -1 1 8.028153e-03 285.465 1692.9751)" class="st0" width="1.2" height="1.2"/>
		
			<rect x="1003.6" y="702.2" transform="matrix(8.028153e-03 -1 1 8.028153e-03 293.3573 1701.2626)" class="st0" width="1.2" height="1.2"/>
		
			<rect x="1013.6" y="703.7" transform="matrix(1.000000e-02 -0.9999 0.9999 1.000000e-02 299.8411 1711.3551)" class="st0" width="1.2" height="1.2"/>
		
			<rect x="987.4" y="710.1" transform="matrix(8.028153e-03 -1 1 8.028153e-03 269.3807 1692.9197)" class="st0" width="1.2" height="1.2"/>
		
			<rect x="995.4" y="710.1" transform="matrix(8.028153e-03 -1 1 8.028153e-03 277.3158 1700.9686)" class="st0" width="1.2" height="1.2"/>
		
			<rect x="1003.5" y="710.2" transform="matrix(8.028153e-03 -1 1 8.028153e-03 285.3089 1709.1577)" class="st0" width="1.2" height="1.2"/>
		
			<rect x="1011.5" y="710.2" transform="matrix(8.028153e-03 -1 1 8.028153e-03 293.2042 1717.2062)" class="st0" width="1.2" height="1.2"/>
	</g>
	
		<rect x="1063.5" y="672.2" transform="matrix(3.665158e-03 -1 1 3.665158e-03 369.7199 1785.6691)" class="st20" width="34.9" height="70.1"/>
	<text transform="matrix(1 0 0 1 1052.4102 714.1599)" class="st21 st22">O</text>
	<text transform="matrix(1 0 0 1 1052.4102 714.1599)" class="st23 st21 st22">O</text>
	<text transform="matrix(1 0 0 1 1060.3301 714.1599)" class="st21 st22">L</text>
	<text transform="matrix(1 0 0 1 1060.3301 714.1599)" class="st23 st21 st22">L</text>
	<text transform="matrix(1 0 0 1 1067.25 714.1599)" class="st21 st22">IVE </text>
	<text transform="matrix(1 0 0 1 1067.25 714.1599)" class="st23 st21 st22">IVE </text>
	<text transform="matrix(1 0 0 1 1090.1699 714.1599)" class="st21 st22">O</text>
	<text transform="matrix(1 0 0 1 1090.1699 714.1599)" class="st23 st21 st22">O</text>
	<text transform="matrix(1 0 0 1 1098.1401 714.1599)" class="st21 st22">I</text>
	<text transform="matrix(1 0 0 1 1098.1401 714.1599)" class="st23 st21 st22">I</text>
	<text transform="matrix(1 0 0 1 1102.4702 714.1599)" class="st21 st22">L</text>
	<text transform="matrix(1 0 0 1 1102.4702 714.1599)" class="st23 st21 st22">L</text>
	<text transform="matrix(0.9999 -1.000000e-02 1.000000e-02 0.9999 1052.4498 703.7991)" class="st4 st24">1/2 cup</text>
	<rect x="917.3" y="810.5" class="st20" width="81.7" height="34.9"/>
	<text transform="matrix(1.01 0 0 1 923.3999 831.5098)" class="st21 st22">L</text>
	<text transform="matrix(1.01 0 0 1 923.3999 831.5098)" class="st23 st21 st22">L</text>
	<text transform="matrix(1.01 0 0 1 930.4902 831.5098)" class="st21 st22">A</text>
	<text transform="matrix(1.01 0 0 1 930.4902 831.5098)" class="st23 st21 st22">A</text>
	<text transform="matrix(1.01 0 0 1 938.4795 831.5098)" class="st21 st22">R</text>
	<text transform="matrix(1.01 0 0 1 938.4795 831.5098)" class="st23 st21 st22">R</text>
	<text transform="matrix(1.01 0 0 1 945.9028 831.5098)" class="st21 st22">G</text>
	<text transform="matrix(1.01 0 0 1 945.9028 831.5098)" class="st23 st21 st22">G</text>
	<text transform="matrix(1.01 0 0 1 953.4375 831.5098)" class="st21 st22">E</text>
	<text transform="matrix(1.01 0 0 1 953.4375 831.5098)" class="st23 st21 st22">E</text>
	<text transform="matrix(1.01 0 0 1 923.3999 840.8999)" class="st21 st22">O</text>
	<text transform="matrix(1.01 0 0 1 923.3999 840.8999)" class="st23 st21 st22">O</text>
	<text transform="matrix(1.01 0 0 1 931.3989 840.8999)" class="st21 st22">N</text>
	<text transform="matrix(1.01 0 0 1 931.3989 840.8999)" class="st23 st21 st22">N</text>
	<text transform="matrix(1.01 0 0 1 940.3579 840.8999)" class="st21 st22">I</text>
	<text transform="matrix(1.01 0 0 1 940.3579 840.8999)" class="st23 st21 st22">I</text>
	<text transform="matrix(1.01 0 0 1 944.4585 840.8999)" class="st21 st22">O</text>
	<text transform="matrix(1.01 0 0 1 944.4585 840.8999)" class="st23 st21 st22">O</text>
	<text transform="matrix(1.01 0 0 1 952.4575 840.8999)" class="st21 st22">N</text>
	<text transform="matrix(1.01 0 0 1 952.4575 840.8999)" class="st23 st21 st22">N</text>
	<text transform="matrix(1.01 1.000000e-02 -1.000000e-02 0.9999 923.4895 820.289)" class="st4 st24">1</text>
	<rect x="1039.2" y="749.5" class="st20" width="70.2" height="34.9"/>
	<text transform="matrix(1.01 0 0 1 1046.3198 769.6299)" class="st21 st22">C</text>
	<text transform="matrix(1.01 0 0 1 1046.3198 769.6299)" class="st23 st21 st22">C</text>
	<text transform="matrix(1.01 0 0 1 1053.7734 769.6299)" class="st21 st22">AR</text>
	<text transform="matrix(1.01 0 0 1 1053.7734 769.6299)" class="st23 st21 st22">AR</text>
	<text transform="matrix(1.01 0 0 1 1046.3198 779.02)" class="st21 st22">-</text>
	<text transform="matrix(1.01 0 0 1 1046.3198 779.02)" class="st23 st21 st22">-</text>
	<text transform="matrix(1.01 0 0 1 1051.8447 779.02)" class="st21 st22">R</text>
	<text transform="matrix(1.01 0 0 1 1051.8447 779.02)" class="st23 st21 st22">R</text>
	<text transform="matrix(1.01 0 0 1 1059.2681 779.02)" class="st21 st22">O</text>
	<text transform="matrix(1.01 0 0 1 1059.2681 779.02)" class="st23 st21 st22">O</text>
	<text transform="matrix(1.01 0 0 1 1067.3179 779.02)" class="st21 st22">T</text>
	<text transform="matrix(1.01 0 0 1 1067.3179 779.02)" class="st23 st21 st22">T</text>
	<text transform="matrix(1.01 1.000000e-02 -1.000000e-02 0.9999 1044.73 758.4189)" class="st4 st24">1</text>
	<g id="chop-2">
		<g id="solid-slice-2">
			
				<rect x="1081.4" y="749.7" transform="matrix(8.028153e-03 -1 1 8.028153e-03 322.9786 1859.5078)" class="st20" width="34.6" height="34.6"/>
		</g>
		
			<rect x="1086.1" y="754.1" transform="matrix(8.028153e-03 -1 1 8.028153e-03 323.3405 1835.3649)" class="st0" width="1.2" height="1.2"/>
		
			<rect x="1094.3" y="754.2" transform="matrix(8.028153e-03 -1 1 8.028153e-03 331.3337 1843.5341)" class="st0" width="1.2" height="1.2"/>
		
			<rect x="1102.3" y="754.2" transform="matrix(8.028153e-03 -1 1 8.028153e-03 339.2289 1851.6022)" class="st0" width="1.2" height="1.2"/>
		
			<rect x="1110.4" y="754.2" transform="matrix(8.028153e-03 -1 1 8.028153e-03 347.2626 1859.7521)" class="st0" width="1.2" height="1.2"/>
		
			<rect x="1085.9" y="778.4" transform="matrix(8.028153e-03 -1 1 8.028153e-03 298.815 1859.1853)" class="st0" width="1.2" height="1.2"/>
		
			<rect x="1094" y="778.4" transform="matrix(8.028153e-03 -1 1 8.028153e-03 306.8483 1867.355)" class="st0" width="1.2" height="1.2"/>
		
			<rect x="1102.1" y="778.5" transform="matrix(8.028153e-03 -1 1 8.028153e-03 314.8422 1875.5043)" class="st0" width="1.2" height="1.2"/>
		
			<rect x="1110.1" y="778.5" transform="matrix(8.028153e-03 -1 1 8.028153e-03 322.737 1883.5726)" class="st0" width="1.2" height="1.2"/>
		
			<rect x="1086.1" y="762.2" transform="matrix(8.028153e-03 -1 1 8.028153e-03 315.1514 1843.3778)" class="st0" width="1.2" height="1.2"/>
		
			<rect x="1094.1" y="762.3" transform="matrix(8.028153e-03 -1 1 8.028153e-03 323.0665 1851.4266)" class="st0" width="1.2" height="1.2"/>
		
			<rect x="1102.2" y="762.3" transform="matrix(8.028153e-03 -1 1 8.028153e-03 331.0797 1859.5959)" class="st0" width="1.2" height="1.2"/>
		
			<rect x="1110.3" y="762.4" transform="matrix(8.028153e-03 -1 1 8.028153e-03 339.073 1867.7649)" class="st0" width="1.2" height="1.2"/>
		
			<rect x="1086" y="770.2" transform="matrix(8.028153e-03 -1 1 8.028153e-03 307.1031 1851.2731)" class="st0" width="1.2" height="1.2"/>
		
			<rect x="1094.1" y="770.3" transform="matrix(8.028153e-03 -1 1 8.028153e-03 314.9978 1859.3416)" class="st0" width="1.2" height="1.2"/>
		
			<rect x="1102.2" y="770.5" transform="matrix(8.028153e-03 -1 1 8.028153e-03 322.8905 1867.609)" class="st0" width="1.2" height="1.2"/>
		
			<rect x="1110.2" y="770.5" transform="matrix(8.028153e-03 -1 1 8.028153e-03 330.8252 1875.6777)" class="st0" width="1.2" height="1.2"/>
	</g>
	
		<rect x="1173.9" y="787.4" transform="matrix(3.665158e-03 -1 1 3.665158e-03 358.7807 2016.4181)" class="st20" width="34.9" height="81.6"/>
	<text transform="matrix(1 6.632202e-03 -6.632202e-03 1 1156.38 836.07)" class="st21 st22">G</text>
	<text transform="matrix(1 6.632202e-03 -6.632202e-03 1 1156.38 836.07)" class="st23 st21 st22">G</text>
	<text transform="matrix(1 6.632202e-03 -6.632202e-03 1 1163.6998 836.1186)" class="st21 st22">A</text>
	<text transform="matrix(1 6.632202e-03 -6.632202e-03 1 1163.6998 836.1186)" class="st23 st21 st22">A</text>
	<text transform="matrix(1 6.632202e-03 -6.632202e-03 1 1171.6097 836.1711)" class="st21 st22">R</text>
	<text transform="matrix(1 6.632202e-03 -6.632202e-03 1 1171.6097 836.1711)" class="st23 st21 st22">R</text>
	<text transform="matrix(1 6.632202e-03 -6.632202e-03 1 1179.5394 836.2236)" class="st21 st22">L</text>
	<text transform="matrix(1 6.632202e-03 -6.632202e-03 1 1179.5394 836.2236)" class="st23 st21 st22">L</text>
	<text transform="matrix(1 6.632202e-03 -6.632202e-03 1 1186.4594 836.2695)" class="st21 st22">I</text>
	<text transform="matrix(1 6.632202e-03 -6.632202e-03 1 1186.4594 836.2695)" class="st23 st21 st22">I</text>
	<text transform="matrix(1 6.632202e-03 -6.632202e-03 1 1190.5194 836.2963)" class="st21 st22">C</text>
	<text transform="matrix(1 6.632202e-03 -6.632202e-03 1 1190.5194 836.2963)" class="st23 st21 st22">C</text>
	<text transform="matrix(1 0 0 1 1156.1899 825.2)" class="st4 st24">3 cloves</text>
	<g id="solid-slice-3">
		
			<rect x="1203.3" y="811" transform="matrix(1.000000e-02 -0.9999 0.9999 1.000000e-02 380.1589 2040.5912)" class="st20" width="34.7" height="34.7"/>
		<line class="st0" x1="1203.4" y1="845.1" x2="1237.7" y2="811.3"/>
		<line class="st0" x1="1210.4" y1="845.2" x2="1238.3" y2="817.6"/>
		<line class="st0" x1="1203.5" y1="838.2" x2="1231.4" y2="810.6"/>
		<line class="st0" x1="1203.5" y1="831.2" x2="1224.5" y2="810.5"/>
		<line class="st0" x1="1203.6" y1="824.3" x2="1217.5" y2="810.5"/>
		<line class="st0" x1="1203.6" y1="817.4" x2="1210.6" y2="810.5"/>
		<line class="st0" x1="1217.3" y1="845.2" x2="1238.3" y2="824.5"/>
		<line class="st0" x1="1224.3" y1="845.3" x2="1238.2" y2="831.4"/>
		<line class="st0" x1="1231.2" y1="845.3" x2="1238.2" y2="838.4"/>
	</g>
	<line class="st0" x1="1141.9" y1="827.4" x2="1150.2" y2="827.3"/>
	<circle class="st2" cx="1142" cy="827.3" r="2.1"/>
	<g id="box-salt">
		<rect x="1016.5" y="884.6" class="st25" width="74.5" height="31.2"/>
		<polyline class="st0" points="1091,912.8 1091,915.8 1088,915.8 		"/>
		<line class="st26" x1="1081.8" y1="915.8" x2="1022.6" y2="915.8"/>
		<polyline class="st0" points="1019.5,915.8 1016.5,915.8 1016.5,912.8 		"/>
		<line class="st27" x1="1016.5" y1="907.8" x2="1016.5" y2="890.2"/>
		<polyline class="st0" points="1016.5,887.6 1016.5,884.6 1019.5,884.6 		"/>
		<line class="st26" x1="1025.7" y1="884.6" x2="1084.9" y2="884.6"/>
		<polyline class="st0" points="1088,884.6 1091,884.6 1091,887.6 		"/>
		<line class="st27" x1="1091" y1="892.7" x2="1091" y2="910.3"/>
	</g>
	<text transform="matrix(1 0 0 1 1028.6802 904.1699)" class="st3 st21 st22">B</text>
	<text transform="matrix(1 0 0 1 1028.6802 904.1699)" class="st28 st21 st22">B</text>
	<text transform="matrix(1 0 0 1 1035.6201 904.1699)" class="st3 st21 st22">A</text>
	<text transform="matrix(1 0 0 1 1035.6201 904.1699)" class="st28 st21 st22">A</text>
	<text transform="matrix(1 0 0 1 1042.0601 904.1699)" class="st3 st21 st22">Y</text>
	<text transform="matrix(1 0 0 1 1042.0601 904.1699)" class="st28 st21 st22">Y</text>
	<text transform="matrix(1 0 0 1 1050.05 904.1699)" class="st3 st21 st22">L</text>
	<text transform="matrix(1 0 0 1 1050.05 904.1699)" class="st28 st21 st22">L</text>
	<text transform="matrix(1 0 0 1 1056.9302 904.1699)" class="st3 st21 st22">E</text>
	<text transform="matrix(1 0 0 1 1056.9302 904.1699)" class="st28 st21 st22">E</text>
	<text transform="matrix(1 0 0 1 1064.3701 904.1699)" class="st3 st21 st22">AF</text>
	<text transform="matrix(1 0 0 1 1064.3701 904.1699)" class="st28 st21 st22">AF</text>
	<g id="box-salt-2">
		<rect x="663.8" y="884.6" class="st3" width="51" height="31.2"/>
		<polyline class="st0" points="714.8,912.8 714.8,915.8 711.8,915.8 		"/>
		<line class="st29" x1="705.3" y1="915.8" x2="670" y2="915.8"/>
		<polyline class="st0" points="666.8,915.8 663.8,915.8 663.8,912.8 		"/>
		<line class="st27" x1="663.8" y1="907.8" x2="663.8" y2="890.2"/>
		<polyline class="st0" points="663.8,887.6 663.8,884.6 666.8,884.6 		"/>
		<line class="st29" x1="673.2" y1="884.6" x2="708.5" y2="884.6"/>
		<polyline class="st0" points="711.8,884.6 714.8,884.6 714.8,887.6 		"/>
		<line class="st27" x1="714.8" y1="892.7" x2="714.8" y2="910.3"/>
	</g>
	<text transform="matrix(1 -1.570796e-03 1.570796e-03 1 674.75 904.36)" class="st21 st22">S</text>
	<text transform="matrix(1 -1.570796e-03 1.570796e-03 1 674.75 904.36)" class="st23 st21 st22">S</text>
	<text transform="matrix(1 -1.570796e-03 1.570796e-03 1 681.8499 904.3488)" class="st21 st22">A</text>
	<text transform="matrix(1 -1.570796e-03 1.570796e-03 1 681.8499 904.3488)" class="st23 st21 st22">A</text>
	<text transform="matrix(1 -1.570796e-03 1.570796e-03 1 689.76 904.3364)" class="st21 st22">L</text>
	<text transform="matrix(1 -1.570796e-03 1.570796e-03 1 689.76 904.3364)" class="st23 st21 st22">L</text>
	<text transform="matrix(1 -1.570796e-03 1.570796e-03 1 696.3201 904.3261)" class="st21 st22">T</text>
	<text transform="matrix(1 -1.570796e-03 1.570796e-03 1 696.3201 904.3261)" class="st23 st21 st22">T</text>
	<g id="box-salt-3">
		
			<rect x="838.5" y="884.4" transform="matrix(1 -4.537793e-03 4.537793e-03 1 -4.0747 4.1503)" class="st30" width="148.1" height="31.2"/>
		<polyline class="st0" points="986.5,912.3 986.6,915.3 983.6,915.3 		"/>
		<line class="st31" x1="977.4" y1="915.4" x2="844.5" y2="916"/>
		<polyline class="st0" points="841.5,916 838.5,916 838.4,913 		"/>
		<line class="st27" x1="838.4" y1="908" x2="838.3" y2="890.3"/>
		<polyline class="st0" points="838.3,887.8 838.3,884.8 841.3,884.8 		"/>
		<line class="st31" x1="847.5" y1="884.8" x2="980.3" y2="884.2"/>
		<polyline class="st0" points="983.4,884.2 986.4,884.2 986.4,887.2 		"/>
		<line class="st27" x1="986.5" y1="892.2" x2="986.5" y2="909.8"/>
	</g>
	<text transform="matrix(1 0 0 1 849.6401 904.1699)" class="st3 st21 st22">P</text>
	<text transform="matrix(1 0 0 1 849.6401 904.1699)" class="st28 st21 st22">P</text>
	<text transform="matrix(1 0 0 1 856.53 904.1699)" class="st3 st21 st22">E</text>
	<text transform="matrix(1 0 0 1 856.53 904.1699)" class="st28 st21 st22">E</text>
	<text transform="matrix(1 0 0 1 863.8301 904.1699)" class="st3 st21 st22">P</text>
	<text transform="matrix(1 0 0 1 863.8301 904.1699)" class="st28 st21 st22">P</text>
	<text transform="matrix(1 0 0 1 870.72 904.1699)" class="st3 st21 st22">E</text>
	<text transform="matrix(1 0 0 1 870.72 904.1699)" class="st28 st21 st22">E</text>
	<text transform="matrix(1 0 0 1 878.02 904.1699)" class="st3 st21 st22">R</text>
	<text transform="matrix(1 0 0 1 878.02 904.1699)" class="st28 st21 st22">R</text>
	<text transform="matrix(1 0 0 1 885.3701 904.1699)" class="st3 st21 st22">O</text>
	<text transform="matrix(1 0 0 1 885.3701 904.1699)" class="st28 st21 st22">O</text>
	<text transform="matrix(1 0 0 1 893.52 904.1699)" class="st3 st21 st22">C</text>
	<text transform="matrix(1 0 0 1 893.52 904.1699)" class="st28 st21 st22">C</text>
	<text transform="matrix(1 0 0 1 901.0801 904.1699)" class="st3 st21 st22">I</text>
	<text transform="matrix(1 0 0 1 901.0801 904.1699)" class="st28 st21 st22">I</text>
	<text transform="matrix(1 0 0 1 905.4102 904.1699)" class="st3 st21 st22">N</text>
	<text transform="matrix(1 0 0 1 905.4102 904.1699)" class="st28 st21 st22">N</text>
	<text transform="matrix(1 0 0 1 914 904.1699)" class="st3 st21 st22">O </text>
	<text transform="matrix(1 0 0 1 914 904.1699)" class="st28 st21 st22">O </text>
	<text transform="matrix(1 0 0 1 925.22 904.1699)" class="st3 st21 st22">P</text>
	<text transform="matrix(1 0 0 1 925.22 904.1699)" class="st28 st21 st22">P</text>
	<text transform="matrix(1 0 0 1 932.1001 904.1699)" class="st3 st21 st22">E</text>
	<text transform="matrix(1 0 0 1 932.1001 904.1699)" class="st28 st21 st22">E</text>
	<text transform="matrix(1 0 0 1 939.4102 904.1699)" class="st3 st21 st22">PP</text>
	<text transform="matrix(1 0 0 1 939.4102 904.1699)" class="st28 st21 st22">PP</text>
	<text transform="matrix(1 0 0 1 953.1899 904.1699)" class="st3 st21 st22">E</text>
	<text transform="matrix(1 0 0 1 953.1899 904.1699)" class="st28 st21 st22">E</text>
	<text transform="matrix(1 0 0 1 960.49 904.1699)" class="st3 st21 st22">R</text>
	<text transform="matrix(1 0 0 1 960.49 904.1699)" class="st28 st21 st22">R</text>
	<text transform="matrix(1 0 0 1 967.96 904.1699)" class="st3 st21 st22">S</text>
	<text transform="matrix(1 0 0 1 967.96 904.1699)" class="st28 st21 st22">S</text>
	<g id="box-salt-4">
		
			<rect x="744.8" y="884.7" transform="matrix(1 -5.759459e-03 5.759459e-03 1 -5.1724 4.4875)" class="st32" width="63.5" height="31.2"/>
		<polyline class="st0" points="808.5,912.6 808.5,915.6 805.5,915.6 		"/>
		<line class="st33" x1="799.1" y1="915.7" x2="751.2" y2="915.9"/>
		<polyline class="st0" points="748,916 745,916 745,913 		"/>
		<line class="st27" x1="744.9" y1="907.9" x2="744.8" y2="890.3"/>
		<polyline class="st0" points="744.8,887.8 744.8,884.8 747.8,884.8 		"/>
		<line class="st33" x1="754.2" y1="884.8" x2="802.1" y2="884.5"/>
		<polyline class="st0" points="805.3,884.5 808.3,884.5 808.3,887.5 		"/>
		<line class="st27" x1="808.4" y1="892.5" x2="808.5" y2="910.1"/>
	</g>
	<text transform="matrix(1 -1.570796e-03 1.570796e-03 1 755.8601 904.36)" class="st3 st21 st22">P</text>
	<text transform="matrix(1 -1.570796e-03 1.570796e-03 1 755.8601 904.36)" class="st28 st21 st22">P</text>
	<text transform="matrix(1 -1.570796e-03 1.570796e-03 1 762.75 904.3491)" class="st3 st21 st22">E</text>
	<text transform="matrix(1 -1.570796e-03 1.570796e-03 1 762.75 904.3491)" class="st28 st21 st22">E</text>
	<text transform="matrix(1 -1.570796e-03 1.570796e-03 1 770.05 904.3378)" class="st3 st21 st22">PP</text>
	<text transform="matrix(1 -1.570796e-03 1.570796e-03 1 770.05 904.3378)" class="st28 st21 st22">PP</text>
	<text transform="matrix(1 -1.570796e-03 1.570796e-03 1 783.8298 904.3161)" class="st3 st21 st22">E</text>
	<text transform="matrix(1 -1.570796e-03 1.570796e-03 1 783.8298 904.3161)" class="st28 st21 st22">E</text>
	<text transform="matrix(1 -1.570796e-03 1.570796e-03 1 791.1299 904.3046)" class="st3 st21 st22">R</text>
	<text transform="matrix(1 -1.570796e-03 1.570796e-03 1 791.1299 904.3046)" class="st28 st21 st22">R</text>
	<g id="dice">
		<g id="solid-slice-4">
			<rect x="968.2" y="810.5" class="st20" width="34.9" height="34.9"/>
		</g>
		<line class="st0" x1="997.3" y1="810.5" x2="997.3" y2="844.8"/>
		<line class="st0" x1="979.8" y1="810.5" x2="979.8" y2="845.4"/>
		<line class="st0" x1="974" y1="810.5" x2="974" y2="844.8"/>
		<line class="st0" x1="991.5" y1="810.5" x2="991.5" y2="844.8"/>
		<line class="st0" x1="985.6" y1="810.5" x2="985.6" y2="844.8"/>
		<line class="st0" x1="1003.1" y1="816.3" x2="968.9" y2="816.3"/>
		<line class="st0" x1="1002.4" y1="822.2" x2="968.2" y2="822.2"/>
		<line class="st0" x1="1002.4" y1="828" x2="968.2" y2="828"/>
		<line class="st0" x1="1002.4" y1="833.8" x2="968.2" y2="833.8"/>
		<line class="st0" x1="1002.4" y1="839.6" x2="968.2" y2="839.6"/>
	</g>
	<rect x="1036.1" y="810.5" class="st20" width="81.7" height="34.9"/>
	<text transform="matrix(1.01 0 0 1 1042.1299 831.5098)" class="st21 st22">R</text>
	<text transform="matrix(1.01 0 0 1 1042.1299 831.5098)" class="st23 st21 st22">R</text>
	<text transform="matrix(1.01 0 0 1 1050.23 831.5098)" class="st21 st22">I</text>
	<text transform="matrix(1.01 0 0 1 1050.23 831.5098)" class="st23 st21 st22">I</text>
	<text transform="matrix(1.01 0 0 1 1054.6035 831.5098)" class="st21 st22">B CE</text>
	<text transform="matrix(1.01 0 0 1 1054.6035 831.5098)" class="st23 st21 st22">B CE</text>
	<text transform="matrix(1.01 0 0 1 1042.1299 840.8999)" class="st21 st22">-</text>
	<text transform="matrix(1.01 0 0 1 1042.1299 840.8999)" class="st23 st21 st22">-</text>
	<text transform="matrix(1.01 0 0 1 1047.6548 840.8999)" class="st21 st22">LE</text>
	<text transform="matrix(1.01 0 0 1 1047.6548 840.8999)" class="st23 st21 st22">LE</text>
	<text transform="matrix(1.01 0 0 1 1061.9863 840.8999)" class="st21 st22">R</text>
	<text transform="matrix(1.01 0 0 1 1061.9863 840.8999)" class="st23 st21 st22">R</text>
	<text transform="matrix(1.01 0 0 1 1068.9658 840.8999)" class="st21 st22">Y</text>
	<text transform="matrix(1.01 0 0 1 1068.9658 840.8999)" class="st23 st21 st22">Y</text>
	<text transform="matrix(1.01 1.000000e-02 -1.000000e-02 0.9999 1042.2201 820.2888)" class="st4 st24">1</text>
	<g id="dice-2">
		<g id="solid-slice-5">
			<rect x="1086.9" y="810.5" class="st20" width="34.9" height="34.9"/>
		</g>
		<line class="st0" x1="1116.1" y1="810.5" x2="1116.1" y2="844.8"/>
		<line class="st0" x1="1098.5" y1="810.5" x2="1098.6" y2="845.4"/>
		<line class="st0" x1="1092.7" y1="810.5" x2="1092.7" y2="844.8"/>
		<line class="st0" x1="1110.2" y1="810.5" x2="1110.2" y2="844.8"/>
		<line class="st0" x1="1104.4" y1="810.5" x2="1104.4" y2="844.8"/>
		<line class="st0" x1="1121.8" y1="816.3" x2="1087.7" y2="816.3"/>
		<line class="st0" x1="1121.1" y1="822.2" x2="1086.9" y2="822.2"/>
		<line class="st0" x1="1121.1" y1="828" x2="1086.9" y2="828"/>
		<line class="st0" x1="1121.1" y1="833.8" x2="1086.9" y2="833.8"/>
		<line class="st0" x1="1121.1" y1="839.6" x2="1086.9" y2="839.6"/>
	</g>
	<g id="packed">
		<rect x="293.5" y="683.7" class="st20" width="41.8" height="41.8"/>
		<line class="st34" x1="297" y1="718.1" x2="331.8" y2="718.1"/>
		<line class="st34" x1="297" y1="720.7" x2="331.8" y2="720.7"/>
		<line class="st34" x1="297" y1="713.9" x2="331.8" y2="713.9"/>
		<line class="st34" x1="297" y1="709.7" x2="331.8" y2="709.7"/>
		<line class="st34" x1="297" y1="704.2" x2="331.8" y2="704.2"/>
		<line class="st0" x1="297" y1="698.6" x2="331.8" y2="698.6"/>
		<line class="st0" x1="297" y1="690.2" x2="331.8" y2="690.2"/>
	</g>
	<g id="liquid">
		<rect x="123.1" y="754.3" class="st20" width="41.8" height="41.8"/>
		<g id="squigglies">
			<g>
				<g>
					<defs>
						<rect id="SVGID_1_" x="123.1" y="754.3" width="41.8" height="41.8"/>
					</defs>
					<clipPath id="SVGID_2_">
						<use xlink:href="#SVGID_1_"  style="overflow:visible;"/>
					</clipPath>
					<g class="st35">
						<g id="squigglies-2">
							<path class="st0" d="M123.1,760.1c3.3,0,3.3,5.8,6.7,5.8c3.4,0,4.2-5.8,7.2-5.8c2.8,0,3.7,5.8,7,5.8s3.3-5.8,6.8-5.8
								c3.2,0,4.1,5,7.4,5c2.5,0,3.3-5,6.7-5"/>
							<path class="st0" d="M123.1,768.5c3.3,0,3.3,5.8,6.7,5.8c3.4,0,4.2-5.8,7.2-5.8c2.8,0,3.7,5.8,7,5.8s3.3-5.8,6.8-5.8
								c3.2,0,4.1,5,7.4,5c2.5,0,3.3-5,6.7-5"/>
							<path class="st0" d="M123.1,776.8c3.3,0,3.3,5.8,6.7,5.8c3.4,0,4.2-5.8,7.2-5.8c2.8,0,3.7,5.8,7,5.8s3.3-5.8,6.8-5.8
								c3.2,0,4.1,5,7.4,5c2.5,0,3.3-5,6.7-5"/>
							<path class="st0" d="M123.1,785.2c3.3,0,3.3,5.8,6.7,5.8c3.4,0,4.2-5.8,7.2-5.8c2.8,0,3.7,5.8,7,5.8s3.3-5.8,6.8-5.8
								c3.2,0,4.1,5,7.4,5c2.5,0,3.3-5,6.7-5"/>
							<path class="st0" d="M123.1,793.5c3.3,0,3.3,5.8,6.7,5.8c3.4,0,4.2-5.8,7.2-5.8c2.8,0,3.7,5.8,7,5.8s3.3-5.8,6.8-5.8
								c3.2,0,4.1,5,7.4,5c2.5,0,3.3-5,6.7-5"/>
							<path class="st0" d="M123.1,751.8c3.3,0,3.3,5.8,6.7,5.8c3.4,0,4.2-5.8,7.2-5.8c2.8,0,3.7,5.8,7,5.8s3.3-5.8,6.8-5.8
								c3.2,0,4.1,5,7.4,5c2.5,0,3.3-5,6.7-5"/>
						</g>
					</g>
				</g>
			</g>
		</g>
	</g>
	<g id="solid-slice-6">
		
			<rect x="123.2" y="583.1" transform="matrix(2.094384e-03 -1 1 2.094384e-03 -460.1919 746.6564)" class="st20" width="41.7" height="41.7"/>
		<line class="st0" x1="123.1" y1="624.7" x2="164" y2="583.9"/>
		<line class="st0" x1="131.4" y1="624.7" x2="164.8" y2="591.4"/>
		<line class="st0" x1="123.1" y1="616.3" x2="156.5" y2="583.1"/>
		<line class="st0" x1="123.1" y1="608" x2="148.2" y2="583.1"/>
		<line class="st0" x1="123.1" y1="599.7" x2="139.9" y2="583"/>
		<line class="st0" x1="123.2" y1="591.3" x2="131.5" y2="583"/>
		<line class="st0" x1="139.8" y1="624.7" x2="164.8" y2="599.8"/>
		<line class="st0" x1="148.1" y1="624.7" x2="164.8" y2="608.1"/>
		<line class="st0" x1="156.4" y1="624.8" x2="164.8" y2="616.4"/>
	</g>
	<g id="fire">
		<g id="squigglies-3">
			<g>
				<g>
					<defs>
						<rect id="SVGID_3_" x="293.5" y="754.3" width="41.8" height="41.8"/>
					</defs>
					<clipPath id="SVGID_4_">
						<use xlink:href="#SVGID_3_"  style="overflow:visible;"/>
					</clipPath>
					<g class="st36">
						<g id="squigglies-4">
							<path class="st0" d="M299.3,796c0-3.3,5.9-3.3,5.9-6.7s-5.9-4.2-5.9-7.2c0-2.8,5.9-3.7,5.9-7s-5.9-3.3-5.9-6.8
								c0-3.2,5-4,5-7.4c0-2.5-5-3.3-5-6.7"/>
							<path class="st0" d="M307.7,796c0-3.3,5.9-3.3,5.9-6.7s-5.9-4.2-5.9-7.2c0-2.8,5.9-3.7,5.9-7s-5.9-3.3-5.9-6.8
								c0-3.2,5-4,5-7.4c0-2.5-5-3.3-5-6.7"/>
							<path class="st0" d="M316,796c0-3.3,5.9-3.3,5.9-6.7s-5.9-4.2-5.9-7.2c0-2.8,5.9-3.7,5.9-7s-5.9-3.3-5.9-6.8c0-3.2,5-4,5-7.4
								c0-2.5-5-3.3-5-6.7"/>
							<path class="st0" d="M324.4,796c0-3.3,5.8-3.3,5.8-6.7s-5.8-4.2-5.8-7.2c0-2.8,5.8-3.7,5.8-7s-5.8-3.3-5.8-6.8
								c0-3.2,5-4,5-7.4c0-2.5-5-3.3-5-6.7"/>
							<path class="st0" d="M332.8,796c0-3.3,5.9-3.3,5.9-6.7s-5.9-4.2-5.9-7.2c0-2.8,5.9-3.7,5.9-7s-5.9-3.3-5.9-6.8
								c0-3.2,5-4,5-7.4c0-2.5-5-3.3-5-6.7"/>
							<path class="st0" d="M291,796c0-3.3,5.9-3.3,5.9-6.7s-5.9-4.2-5.9-7.2c0-2.8,5.9-3.7,5.9-7s-5.9-3.3-5.9-6.8c0-3.2,5-4,5-7.4
								c0-2.5-5-3.3-5-6.7"/>
						</g>
					</g>
				</g>
			</g>
			<rect x="293.5" y="754.3" class="st0" width="41.8" height="41.8"/>
		</g>
	</g>
	<g id="gas">
		<rect x="123.1" y="874.1" class="st0" width="41.8" height="41.8"/>
		
			<ellipse transform="matrix(3.327827e-02 -0.9994 0.9994 3.327827e-02 -754.8186 980.4302)" class="st37" cx="129.4" cy="880.4" rx="1.4" ry="1.4"/>
		
			<ellipse transform="matrix(3.327827e-02 -0.9994 0.9994 3.327827e-02 -764.5132 989.8073)" class="st37" cx="129.4" cy="890.1" rx="1.4" ry="1.4"/>
		
			<ellipse transform="matrix(3.327827e-02 -0.9994 0.9994 3.327827e-02 -774.3078 999.2812)" class="st37" cx="129.4" cy="899.9" rx="1.4" ry="1.4"/>
		
			<ellipse transform="matrix(3.327827e-02 -0.9994 0.9994 3.327827e-02 -784.0024 1008.6584)" class="st37" cx="129.4" cy="909.6" rx="1.4" ry="1.4"/>
		<circle class="st37" cx="158.6" cy="880.4" r="1.4"/>
		<circle class="st37" cx="158.6" cy="890.1" r="1.4"/>
		<circle class="st37" cx="158.6" cy="899.9" r="1.4"/>
		<circle class="st37" cx="158.6" cy="909.6" r="1.4"/>
		<circle class="st37" cx="139.1" cy="880.4" r="1.4"/>
		<circle class="st37" cx="139.1" cy="890.1" r="1.4"/>
		<circle class="st37" cx="139.1" cy="899.9" r="1.4"/>
		<circle class="st37" cx="139.1" cy="909.6" r="1.4"/>
		<circle class="st37" cx="148.9" cy="880.4" r="1.4"/>
		<circle class="st37" cx="148.9" cy="890.1" r="1.4"/>
		<circle class="st37" cx="148.9" cy="899.9" r="1.4"/>
		<circle class="st37" cx="148.9" cy="909.6" r="1.4"/>
	</g>
	<text transform="matrix(1 0 0 1 119.02 355.8999)" class="st6 st38 st39">S</text>
	<text transform="matrix(1 0 0 1 119.02 355.8999)" class="st23 st6 st38 st39">S</text>
	<text transform="matrix(1 0 0 1 128.73 355.8999)" class="st6 st38">TA</text>
	<text transform="matrix(1 0 0 1 128.73 355.8999)" class="st23 st6 st38">TA</text>
	<text transform="matrix(1 0 0 1 147.1799 355.8999)" class="st6 st38 st39">TE BEFORE USE</text>
	<text transform="matrix(1 0 0 1 147.1799 355.8999)" class="st23 st6 st38 st39">TE BEFORE USE</text>
	<text transform="matrix(1 0 0 1 171.99 506.52)" class="st6 st40">ORIGINAL</text>
	<text transform="matrix(1 0 0 1 171.99 506.52)" class="st23 st6 st40">ORIGINAL</text>
	<text transform="matrix(1 0 0 1 171.99 556.8799)" class="st6 st40">SOLIDIFIED</text>
	<text transform="matrix(1 0 0 1 171.99 556.8799)" class="st23 st6 st40">SOLIDIFIED</text>
	<text transform="matrix(1 0 0 1 344.02 778.6001)" class="st6 st40">MELTED</text>
	<text transform="matrix(1 0 0 1 344.02 778.6001)" class="st23 st6 st40">MELTED</text>
	<text transform="matrix(1 0 0 1 171.99 777.6299)" class="st6 st40">LIQUIFIED</text>
	<text transform="matrix(1 0 0 1 171.99 777.6299)" class="st23 st6 st40">LIQUIFIED</text>
	
		<use xlink:href="#solid"  width="29" height="29" x="-14.5" y="-14.5" transform="matrix(1.4749 0 0 1.4749 143.9616 553.9716)" style="overflow:visible;"/>
	<g id="squigglies-5">
		<rect x="123.1" y="483.2" width="41.8" height="41.8"/>
		<rect x="123.1" y="483.2" class="st0" width="41.8" height="41.8"/>
	</g>
	<text transform="matrix(1 2.094394e-03 -2.094394e-03 1 171.9299 606.35)" class="st6 st40">CUT/SLICED</text>
	<text transform="matrix(1 2.094394e-03 -2.094394e-03 1 171.9299 606.35)" class="st23 st6 st40">CUT/SLICED</text>
	<text transform="matrix(1 0 0 1 172.02 897.45)" class="st6 st40">GAS</text>
	<text transform="matrix(1 0 0 1 172.02 897.45)" class="st23 st6 st40">GAS</text>
	<g id="dice-3">
		<g id="solid-slice-7">
			<rect x="123.1" y="633.4" class="st20" width="41.8" height="41.8"/>
		</g>
		<line class="st0" x1="157.9" y1="633.4" x2="157.9" y2="673.7"/>
		<line class="st0" x1="137" y1="634.8" x2="137" y2="675.1"/>
		<line class="st0" x1="130.1" y1="633.4" x2="130.1" y2="673.7"/>
		<line class="st0" x1="150.9" y1="633.4" x2="150.9" y2="673.7"/>
		<line class="st0" x1="144" y1="633.4" x2="144" y2="673.7"/>
		<line class="st0" x1="164.9" y1="640.3" x2="124.5" y2="640.3"/>
		<line class="st0" x1="163.5" y1="647.3" x2="123.1" y2="647.3"/>
		<line class="st0" x1="163.5" y1="654.2" x2="123.1" y2="654.2"/>
		<line class="st0" x1="163.5" y1="661.2" x2="123.1" y2="661.2"/>
		<line class="st0" x1="163.5" y1="668.2" x2="123.1" y2="668.2"/>
	</g>
	<text transform="matrix(1 0 0 1 171.99 656.7)" class="st6 st40">DICED</text>
	<text transform="matrix(1 0 0 1 171.99 656.7)" class="st23 st6 st40">DICED</text>
	<g id="beat_blend">
		<rect x="293.5" y="805.7" class="st20" width="41.8" height="41.8"/>
		<circle class="st0" cx="313.7" cy="827.3" r="20.2"/>
		<circle class="st0" cx="313.7" cy="827.3" r="14.6"/>
		<circle class="st0" cx="313.7" cy="827.3" r="9"/>
		<circle class="st0" cx="313.7" cy="827.3" r="3.5"/>
	</g>
	<text transform="matrix(1 0 0 1 344.02 830.0601)" class="st6 st40">MASHED</text>
	<text transform="matrix(1 0 0 1 344.02 830.0601)" class="st23 st6 st40">MASHED</text>
	<text transform="matrix(1 0 0 1 344.02 607.3501)" class="st6 st40">CHOPPED/GR</text>
	<text transform="matrix(1 0 0 1 344.02 607.3501)" class="st23 st6 st40">CHOPPED/GR</text>
	<text transform="matrix(1 0 0 1 416.6899 607.3501)" class="st6 st40">A</text>
	<text transform="matrix(1 0 0 1 416.6899 607.3501)" class="st23 st6 st40">A</text>
	<text transform="matrix(1 0 0 1 424.8 607.3501)" class="st6 st40">TED/G</text>
	<text transform="matrix(1 0 0 1 424.8 607.3501)" class="st23 st6 st40">TED/G</text>
	<text transform="matrix(0.9999 1.062055e-02 -1.062055e-02 0.9999 456.8869 607.1334)" class="st6 st40">R</text>
	<text transform="matrix(0.9999 1.062055e-02 -1.062055e-02 0.9999 456.8869 607.1334)" class="st23 st6 st40">R</text>
	<text transform="matrix(0.9999 1.062055e-02 -1.062055e-02 0.9999 464.8463 607.2178)" class="st6 st40">OUND</text>
	<text transform="matrix(0.9999 1.062055e-02 -1.062055e-02 0.9999 464.8463 607.2178)" class="st23 st6 st40">OUND</text>
	<g id="chop-3">
		<g id="solid-slice-8">
			<rect x="293.5" y="583" class="st20" width="41.8" height="41.8"/>
		</g>
		<rect x="299.1" y="588.6" class="st0" width="1.4" height="1.4"/>
		<rect x="308.8" y="588.6" class="st0" width="1.4" height="1.4"/>
		<rect x="318.5" y="588.6" class="st0" width="1.4" height="1.4"/>
		<rect x="328.3" y="588.6" class="st0" width="1.4" height="1.4"/>
		<rect x="299.1" y="617.8" class="st0" width="1.4" height="1.4"/>
		<rect x="308.8" y="617.8" class="st0" width="1.4" height="1.4"/>
		<rect x="318.5" y="617.8" class="st0" width="1.4" height="1.4"/>
		<rect x="328.3" y="617.8" class="st0" width="1.4" height="1.4"/>
		<rect x="299.1" y="598.3" class="st0" width="1.4" height="1.4"/>
		<rect x="308.8" y="598.3" class="st0" width="1.4" height="1.4"/>
		<rect x="318.5" y="598.3" class="st0" width="1.4" height="1.4"/>
		<rect x="328.3" y="598.3" class="st0" width="1.4" height="1.4"/>
		<rect x="299.1" y="608.1" class="st0" width="1.4" height="1.4"/>
		<rect x="308.8" y="608.1" class="st0" width="1.4" height="1.4"/>
		<rect x="318.5" y="608.1" class="st0" width="1.4" height="1.4"/>
		<rect x="328.3" y="608.1" class="st0" width="1.4" height="1.4"/>
	</g>
	<text transform="matrix(1 0 0 1 344.02 657.7)" class="st6 st40">PIE</text>
	<text transform="matrix(1 0 0 1 344.02 657.7)" class="st23 st6 st40">PIE</text>
	<text transform="matrix(1 0 0 1 360.7 657.7)" class="st6 st40">R</text>
	<text transform="matrix(1 0 0 1 360.7 657.7)" class="st23 st6 st40">R</text>
	<text transform="matrix(1 0 0 1 368.6599 657.7)" class="st6 st40">CED</text>
	<text transform="matrix(1 0 0 1 368.6599 657.7)" class="st23 st6 st40">CED</text>
	<g id="pierce">
		<rect x="293.5" y="633.4" class="st20" width="41.8" height="41.8"/>
		<line class="st0" x1="299.1" y1="645.2" x2="306.1" y2="638.2"/>
		<line class="st0" x1="299.1" y1="638.2" x2="306.1" y2="645.2"/>
		<line class="st0" x1="310.6" y1="657.6" x2="317.6" y2="650.6"/>
		<line class="st0" x1="310.6" y1="650.6" x2="317.6" y2="657.6"/>
		<line class="st0" x1="322.6" y1="670.3" x2="329.6" y2="663.3"/>
		<line class="st0" x1="322.6" y1="663.3" x2="329.6" y2="670.3"/>
	</g>
	<text transform="matrix(1 1.745329e-04 -1.745329e-04 1 171.9801 707.06)" class="st6 st40">SLIT</text>
	<text transform="matrix(1 1.745329e-04 -1.745329e-04 1 171.9801 707.06)" class="st23 st6 st40">SLIT</text>
	<g id="slit">
		<rect x="123.1" y="683.7" class="st20" width="41.8" height="41.8"/>
		<line class="st0" x1="134.3" y1="692.4" x2="153.6" y2="692.4"/>
		<line class="st0" x1="134.3" y1="704.2" x2="153.6" y2="704.2"/>
		<line class="st0" x1="134.3" y1="715.1" x2="153.6" y2="715.1"/>
	</g>
	<text transform="matrix(1 0 0 1 344.02 708.05)" class="st6 st40">P</text>
	<text transform="matrix(1 0 0 1 344.02 708.05)" class="st23 st6 st40">P</text>
	<text transform="matrix(1 0 0 1 350.76 708.05)" class="st6 st40">ACKED</text>
	<text transform="matrix(1 0 0 1 350.76 708.05)" class="st23 st6 st40">ACKED</text>
	<g id="soften">
		<path class="st0" d="M164.9,812.8c-3.3,0-3.3-5.8-6.7-5.8s-3.2,5.7-6.3,5.7c-2.8,0-2.2-4.2-5.6-4.2s-2.1,4.2-5.6,4.2
			c-3.2,0-14.3,0.1-17.7,0.1"/>
		<g id="squigglies-7">
			<rect x="123.1" y="805.7" class="st0" width="41.8" height="41.8"/>
		</g>
		<path class="st0" d="M164.9,819.8c-3.3,0-3.3-5.8-6.7-5.8s-3.2,5.7-6.3,5.7c-2.8,0-2.2-4.2-5.6-4.2s-2.1,4.2-5.6,4.2
			c-3.2,0-14.3,0.1-17.7,0.1"/>
		<path class="st0" d="M164.9,826.7c-3.3,0-3.3-5.8-6.7-5.8s-3.2,5.7-6.3,5.7c-2.8,0-2.2-4.2-5.6-4.2s-2.1,4.2-5.6,4.2
			c-3.2,0-14.3,0.1-17.7,0.1"/>
		<path class="st0" d="M164.9,833.7c-3.3,0-3.3-5.8-6.7-5.8s-3.2,5.7-6.3,5.7c-2.8,0-2.2-4.2-5.6-4.2s-2.1,4.2-5.6,4.2
			c-3.2,0-14.3,0.1-17.7,0.1"/>
		<path class="st0" d="M164.9,840.7c-3.3,0-3.3-5.8-6.7-5.8s-3.2,5.7-6.3,5.7c-2.8,0-2.2-4.2-5.6-4.2s-2.1,4.2-5.6,4.2
			c-3.2,0-14.3,0.1-17.7,0.1"/>
		<path class="st0" d="M164.2,847.4c-3.3,0-2.6-5.6-6-5.6s-3.2,5.7-6.3,5.7c-2.8,0-2.2-4.2-5.6-4.2s-2.1,4.2-5.6,4.2
			c-3.2,0-13.6-0.1-16.9-0.1"/>
	</g>
	<text transform="matrix(0.88 0 0 1 171.9902 829.0601)" class="st6 st40">SOFTEN</text>
	<text transform="matrix(0.88 0 0 1 171.9902 829.0601)" class="st23 st6 st40">SOFTEN</text>
	<g id="squigglies-8">
		<rect x="146.6" y="398.6" class="st0" width="41.8" height="41.8"/>
	</g>
	<line class="st0" x1="147" y1="390" x2="147" y2="396"/>
	<line class="st0" x1="188" y1="393" x2="147" y2="393"/>
	<line class="st0" x1="188" y1="390" x2="188" y2="396"/>
	<rect x="183" y="402" class="st0" width="2" height="2"/>
	<rect x="150" y="402" class="st0" width="2" height="2"/>
	<rect x="183" y="435" class="st0" width="2" height="2"/>
	<rect x="150" y="435" class="st0" width="2" height="2"/>
	<text transform="matrix(1 0 0 1 159.3501 389.6001)" class="st8 st41">0.58</text>
	<rect x="123" y="373" class="st42" width="87" height="88"/>
	<text transform="matrix(1 0 0 1 149.71 449.73)" class="st8 st41">2px stroke</text>
	<rect x="582" y="1" class="st0" width="660" height="1018"/>
</g>
</svg>
